<?xml version="1.0" standalone="no"?><!DOCTYPE svg PUBLIC "-//W3C//DTD SVG 1.1//EN" "http://www.w3.org/Graphics/SVG/1.1/DTD/svg11.dtd"><svg t="1676802883438" class="icon" viewBox="0 0 1040 1024" version="1.1" xmlns="http://www.w3.org/2000/svg" p-id="2761" xmlns:xlink="http://www.w3.org/1999/xlink" width="203.125" height="200"><path d="M214.390835 511.646959a39.058 39.26 0 1 0 79.936587 0 39.058 39.26 0 1 0-79.936587 0Z" fill="#272636" p-id="2762"></path><path d="M470.922443 511.646959a39.058 39.26 0 1 0 79.936587 0 39.058 39.26 0 1 0-79.936587 0Z" fill="#272636" p-id="2763"></path><path d="M726.577077 511.646959a39.058 39.26 0 1 0 79.936587 0 39.058 39.26 0 1 0-79.936587 0Z" fill="#272636" p-id="2764"></path><path d="M619.515712 107.205651 404.441309 107.205651c-222.442208 0-404.441309 181.998077-404.441309 404.441309l0 0.001023c0 222.442208 181.998077 404.441309 404.441309 404.441309l215.075427 0c222.442208 0 404.441309-181.998077 404.441309-404.441309l0-0.001023C1023.957021 289.203728 841.957921 107.205651 619.515712 107.205651zM994.94936 511.646959c0 206.488865-168.945807 375.434671-375.434671 375.434671L404.441309 887.081631c-206.488865 0-375.434671-168.945807-375.434671-375.434671l0-0.001023c0-206.488865 168.945807-375.434671 375.434671-375.434671l215.074404 0C826.004577 136.212288 994.94936 305.158095 994.94936 511.646959L994.94936 511.646959z" fill="#272636" p-id="2765"></path></svg>