<?xml version="1.0" encoding="utf-8"?>
<svg version="1.1" xmlns:xlink="http://www.w3.org/1999/xlink" width="23px" height="19px" xmlns="http://www.w3.org/2000/svg">
  <g transform="matrix(1 0 0 1 -245 -9 )">
    <path d="M 6.23291015625 5.29106714628297  C 6.42008463541667 5.10501598721023  6.513671875 4.85631494804157  6.513671875 4.54496402877698  C 6.513671875 4.23361310951239  6.42008463541667 3.9830135891287  6.23291015625 3.7931654676259  C 6.04573567708333 3.6033173461231  5.79866536458333 3.5083932853717  5.49169921875 3.5083932853717  C 5.16975911458333 3.5083932853717  4.88525390625 3.60521582733813  4.63818359375 3.79886091127098  C 4.39111328125 3.99250599520384  4.267578125 4.2412070343725  4.267578125 4.54496402877698  C 4.267578125 4.84112709832134  4.39111328125 5.08603117505995  4.63818359375 5.27967625899281  C 4.88525390625 5.47332134292566  5.16975911458333 5.57014388489209  5.49169921875 5.57014388489209  C 5.79866536458333 5.57014388489209  6.04573567708333 5.47711830535571  6.23291015625 5.29106714628297  Z M 14.571533203125 10.9010791366906  C 14.762451171875 10.7340127897682  14.85791015625 10.5403677058353  14.85791015625 10.3201438848921  C 14.85791015625 10.107513988809  14.762451171875 9.91766586730616  14.571533203125 9.75059952038369  C 14.380615234375 9.58353317346123  14.1354166666667 9.5  13.8359375 9.5  C 13.6337890625 9.5  13.448486328125 9.58543165467626  13.280029296875 9.75629496402878  C 13.111572265625 9.92715827338129  13.02734375 10.1151079136691  13.02734375 10.3201438848921  C 13.02734375 10.5327737809752  13.111572265625 10.724520383693  13.280029296875 10.8953836930456  C 13.448486328125 11.0662470023981  13.6337890625 11.1516786570743  13.8359375 11.1516786570743  C 14.1354166666667 11.1516786570743  14.380615234375 11.0681454836131  14.571533203125 10.9010791366906  Z M 11.932373046875 5.29106714628297  C 12.1158040364583 5.10501598721023  12.20751953125 4.85631494804157  12.20751953125 4.54496402877698  C 12.20751953125 4.23361310951239  12.1158040364583 3.9830135891287  11.932373046875 3.7931654676259  C 11.7489420572917 3.6033173461231  11.5037434895833 3.5083932853717  11.19677734375 3.5083932853717  C 10.8748372395833 3.5083932853717  10.59033203125 3.60521582733813  10.34326171875 3.79886091127098  C 10.09619140625 3.99250599520384  9.97265625 4.2412070343725  9.97265625 4.54496402877698  C 9.97265625 4.84112709832134  10.09619140625 5.08603117505995  10.34326171875 5.27967625899281  C 10.59033203125 5.47332134292566  10.8748372395833 5.57014388489209  11.19677734375 5.57014388489209  C 11.5037434895833 5.57014388489209  11.7489420572917 5.47711830535571  11.932373046875 5.29106714628297  Z M 19.046875 10.9010791366906  C 19.2415364583333 10.7340127897682  19.3388671875 10.5403677058353  19.3388671875 10.3201438848921  C 19.3388671875 10.107513988809  19.2415364583333 9.91766586730616  19.046875 9.75059952038369  C 18.8522135416667 9.58353317346123  18.60888671875 9.5  18.31689453125 9.5  C 18.11474609375 9.5  17.929443359375 9.58543165467626  17.760986328125 9.75629496402878  C 17.592529296875 9.92715827338129  17.50830078125 10.1151079136691  17.50830078125 10.3201438848921  C 17.50830078125 10.5327737809752  17.592529296875 10.724520383693  17.760986328125 10.8953836930456  C 17.929443359375 11.0662470023981  18.11474609375 11.1516786570743  18.31689453125 11.1516786570743  C 18.60888671875 11.1516786570743  18.8522135416667 11.0681454836131  19.046875 10.9010791366906  Z M 14.818603515625 2.83063549160671  C 15.6084798177083 3.71532773780975  16.1194661458333 4.70443645083933  16.3515625 5.79796163069544  C 16.1194661458333 5.767585931255  15.857421875 5.75239808153477  15.5654296875 5.75239808153477  C 14.3001302083333 5.75239808153477  13.1359049479167 6.04476418864908  12.07275390625 6.6294964028777  C 11.0096028645833 7.21422861710631  10.1729329427083 8.00589528377298  9.562744140625 9.0044964028777  C 8.95255533854167 10.0030975219824  8.6474609375 11.0947242206235  8.6474609375 12.279376498801  C 8.6474609375 12.8717026378897  8.73356119791667 13.4488409272582  8.90576171875 14.0107913669065  C 8.64371744791667 14.0335731414868  8.38916015625 14.044964028777  8.14208984375 14.044964028777  C 7.94742838541667 14.044964028777  7.76025390625 14.0392685851319  7.58056640625 14.0278776978417  C 7.40087890625 14.0164868105516  7.19498697916667 13.9918065547562  6.962890625 13.9538369304556  C 6.73079427083333 13.9158673061551  6.564208984375 13.8892885691447  6.463134765625 13.8741007194245  C 6.362060546875 13.8589128697042  6.15804036458333 13.8190447641886  5.85107421875 13.7544964028777  C 5.54410807291667 13.6899480415667  5.35693359375 13.6500799360512  5.28955078125 13.6348920863309  L 2.4482421875 15.0815347721823  L 3.2568359375 12.5983213429257  C 1.08561197916667 11.0567545963229  0 9.19624300559552  0 7.01678657074341  C 0 5.73341326938449  0.364990234375 4.55255795363709  1.094970703125 3.4742206235012  C 1.824951171875 2.39588329336531  2.813232421875 1.5472621902478  4.059814453125 0.928357314148682  C 5.306396484375 0.309452438049559  6.66715494791667 0  8.14208984375 0  C 9.45979817708333 0  10.7045084635417 0.250599520383694  11.876220703125 0.751798561151079  C 13.0479329427083 1.25299760191847  14.0287272135417 1.94594324540368  14.818603515625 2.83063549160671  Z M 22.039794921875 9.18675059952038  C 22.679931640625 10.109412470024  23 11.1099120703437  23 12.1882494004796  C 23 13.0767386091127  22.7435709635417 13.9253597122302  22.230712890625 14.7341127098321  C 21.7178548177083 15.5428657074341  21.0234375 16.2775779376499  20.1474609375 16.9382494004796  L 20.76513671875 19  L 18.5302734375 17.7583932853717  C 17.4072265625 18.0393685051958  16.5911458333333 18.1798561151079  16.08203125 18.1798561151079  C 14.8167317708333 18.1798561151079  13.6525065104167 17.912170263789  12.58935546875 17.3767985611511  C 11.5262044270833 16.8414268585132  10.6895345052083 16.1143085531575  10.079345703125 15.1954436450839  C 9.46915690104167 14.2765787370104  9.1640625 13.2741806554756  9.1640625 12.1882494004796  C 9.1640625 11.1023181454836  9.46915690104167 10.0999200639488  10.079345703125 9.1810551558753  C 10.6895345052083 8.26219024780176  11.5262044270833 7.53507194244604  12.58935546875 6.99970023980815  C 13.6525065104167 6.46432853717026  14.8167317708333 6.19664268585132  16.08203125 6.19664268585132  C 17.2874348958333 6.19664268585132  18.4217122395833 6.46432853717026  19.48486328125 6.99970023980815  C 20.5480143229167 7.53507194244604  21.399658203125 8.26408872901679  22.039794921875 9.18675059952038  Z " fill-rule="nonzero" fill="#ee9171" stroke="none" transform="matrix(1 0 0 1 245 9 )" />
  </g>
</svg>