<?xml version="1.0" encoding="utf-8"?>
<svg version="1.1" xmlns:xlink="http://www.w3.org/1999/xlink" width="22px" height="18px" xmlns="http://www.w3.org/2000/svg">
  <g transform="matrix(1 0 0 1 -1155 -9 )">
    <path d="M 15.8257211538462 6.30255681818182  C 15.9931891025641 6.140625  16.0769230769231 5.94886363636364  16.0769230769231 5.72727272727273  C 16.0769230769231 5.50568181818182  15.9931891025641 5.31392045454545  15.8257211538462 5.15198863636364  C 15.6582532051282 4.99005681818182  15.4599358974359 4.90909090909091  15.2307692307692 4.90909090909091  L 13.5384615384615 4.90909090909091  L 13.5384615384615 3.27272727272727  C 13.5384615384615 3.05113636363636  13.4547275641026 2.859375  13.2872596153846 2.69744318181818  C 13.1197916666667 2.53551136363636  12.9214743589744 2.45454545454545  12.6923076923077 2.45454545454545  C 12.463141025641 2.45454545454545  12.2648237179487 2.53551136363636  12.0973557692308 2.69744318181818  C 11.9298878205128 2.859375  11.8461538461538 3.05113636363636  11.8461538461538 3.27272727272727  L 11.8461538461538 4.90909090909091  L 10.1538461538462 4.90909090909091  C 9.92467948717949 4.90909090909091  9.72636217948718 4.99005681818182  9.55889423076923 5.15198863636364  C 9.39142628205128 5.31392045454545  9.30769230769231 5.50568181818182  9.30769230769231 5.72727272727273  C 9.30769230769231 5.94886363636364  9.39142628205128 6.140625  9.55889423076923 6.30255681818182  C 9.72636217948718 6.46448863636364  9.92467948717949 6.54545454545455  10.1538461538462 6.54545454545455  L 11.8461538461538 6.54545454545455  L 11.8461538461538 8.18181818181818  C 11.8461538461538 8.40340909090909  11.9298878205128 8.59517045454545  12.0973557692308 8.75710227272727  C 12.2648237179487 8.91903409090909  12.463141025641 9  12.6923076923077 9  C 12.9214743589744 9  13.1197916666667 8.91903409090909  13.2872596153846 8.75710227272727  C 13.4547275641026 8.59517045454545  13.5384615384615 8.40340909090909  13.5384615384615 8.18181818181818  L 13.5384615384615 6.54545454545455  L 15.2307692307692 6.54545454545455  C 15.4599358974359 6.54545454545455  15.6582532051282 6.46448863636364  15.8257211538462 6.30255681818182  Z M 7.96574519230769 15.2066761363636  C 8.29627403846154 15.5262784090909  8.46153846153846 15.9119318181818  8.46153846153846 16.3636363636364  C 8.46153846153846 16.8153409090909  8.29627403846154 17.2009943181818  7.96574519230769 17.5205965909091  C 7.63521634615385 17.8401988636364  7.23637820512821 18  6.76923076923077 18  C 6.30208333333333 18  5.90324519230769 17.8401988636364  5.57271634615385 17.5205965909091  C 5.2421875 17.2009943181818  5.07692307692308 16.8153409090909  5.07692307692308 16.3636363636364  C 5.07692307692308 15.9119318181818  5.2421875 15.5262784090909  5.57271634615385 15.2066761363636  C 5.90324519230769 14.8870738636364  6.30208333333333 14.7272727272727  6.76923076923077 14.7272727272727  C 7.23637820512821 14.7272727272727  7.63521634615385 14.8870738636364  7.96574519230769 15.2066761363636  Z M 19.8118990384615 15.2066761363636  C 20.1424278846154 15.5262784090909  20.3076923076923 15.9119318181818  20.3076923076923 16.3636363636364  C 20.3076923076923 16.8153409090909  20.1424278846154 17.2009943181818  19.8118990384615 17.5205965909091  C 19.4813701923077 17.8401988636364  19.0825320512821 18  18.6153846153846 18  C 18.1482371794872 18  17.7493990384615 17.8401988636364  17.4188701923077 17.5205965909091  C 17.0883413461538 17.2009943181818  16.9230769230769 16.8153409090909  16.9230769230769 16.3636363636364  C 16.9230769230769 15.9119318181818  17.0883413461538 15.5262784090909  17.4188701923077 15.2066761363636  C 17.7493990384615 14.8870738636364  18.1482371794872 14.7272727272727  18.6153846153846 14.7272727272727  C 19.0825320512821 14.7272727272727  19.4813701923077 14.8870738636364  19.8118990384615 15.2066761363636  Z M 21.7487980769231 1.87926136363636  C 21.916266025641 2.04119318181818  22 2.23295454545454  22 2.45454545454545  L 22 9  C 22 9.20454545454546  21.9294871794872 9.38565340909091  21.7884615384615 9.54332386363637  C 21.6474358974359 9.70099431818182  21.4667467948718 9.79261363636363  21.2463942307692 9.81818181818182  L 7.44350961538462 11.3778409090909  C 7.45232371794872 11.4375  7.47215544871795 11.5291193181818  7.50300480769231 11.6526988636364  C 7.53385416666667 11.7762784090909  7.56029647435897 11.8892045454545  7.58233173076923 11.9914772727273  C 7.60436698717949 12.09375  7.61538461538462 12.1875  7.61538461538462 12.2727272727273  C 7.61538461538462 12.4090909090909  7.50961538461539 12.6818181818182  7.29807692307692 13  L 19.4615384615385 13  C 19.6907051282051 13.0909090909091  19.8890224358974 13.171875  20.0564903846154 13.3338068181818  C 20.2239583333333 13.4957386363636  20.3076923076923 13.6875  20.3076923076923 13.9090909090909  C 20.3076923076923 14.1306818181818  20.2239583333333 14.3224431818182  20.0564903846154 14.484375  C 19.8890224358974 14.6463068181818  19.6907051282051 14.7272727272727  19.4615384615385 14.7272727272727  L 5.92307692307692 14.7272727272727  C 5.69391025641026 14.7272727272727  5.49559294871795 14.6463068181818  5.328125 14.484375  C 5.16065705128205 14.3224431818182  5.07692307692308 14.1306818181818  5.07692307692308 13.9090909090909  C 5.07692307692308 13.7897727272727  5.12540064102564 13.6214488636364  5.22235576923077 13.4041193181818  C 5.3193108974359 13.1867897727273  5.44931891025641 12.9332386363636  5.61237980769231 12.6434659090909  C 5.77544070512821 12.3536931818182  5.86578525641026 12.1917613636364  5.88341346153846 12.1576704545455  L 3.54326923076923 1.63636363636364  L 0.846153846153846 1.63636363636364  C 0.61698717948718 1.63636363636364  0.418669871794872 1.55539772727273  0.251201923076923 1.39346590909091  C 0.0837339743589744 1.23153409090909  0 1.03977272727273  0 0.818181818181817  C 0 0.596590909090908  0.0837339743589744 0.404829545454543  0.251201923076923 0.242897727272728  C 0.418669871794872 0.0809659090909074  0.61698717948718 0  0.846153846153846 0  L 4.23076923076923 0  C 4.37179487179487 0  4.49739583333333 0.0276988636363624  4.60757211538462 0.0830965909090913  C 4.7177483974359 0.138494318181818  4.80588942307692 0.204545454545454  4.87199519230769 0.28125  C 4.93810096153846 0.357954545454546  4.99539262820513 0.462357954545452  5.04387019230769 0.594460227272728  C 5.09234775641026 0.726562499999999  5.12540064102564 0.839488636363634  5.14302884615385 0.933238636363637  C 5.16065705128205 1.02698863636364  5.18489583333333 1.15269886363636  5.21574519230769 1.31036931818182  C 5.24659455128205 1.46803977272727  5.26642628205128 1.57670454545454  5.27524038461539 1.63636363636364  L 21.1538461538462 1.63636363636364  C 21.3830128205128 1.63636363636364  21.5813301282051 1.71732954545454  21.7487980769231 1.87926136363636  Z " fill-rule="nonzero" fill="#eb656c" stroke="none" transform="matrix(1 0 0 1 1155 9 )" />
  </g>
</svg>