<?xml version="1.0" encoding="utf-8"?>
<svg version="1.1" xmlns:xlink="http://www.w3.org/1999/xlink" width="23px" height="23px" xmlns="http://www.w3.org/2000/svg">
  <g transform="matrix(1 0 0 1 -1029 -373 )">
    <path d="M 15.6456473214286 1.66852678571429  C 14.3279389880952 1.10379464285714  12.946056547619 0.821428571428571  11.5 0.821428571428571  C 10.053943452381 0.821428571428571  8.67206101190476 1.10379464285714  7.35435267857143 1.66852678571429  C 6.03664434523809 2.23325892857143  4.90076264880952 2.9926525297619  3.94670758928571 3.94670758928571  C 2.9926525297619 4.90076264880952  2.23325892857143 6.03664434523809  1.66852678571429 7.35435267857143  C 1.10379464285714 8.67206101190476  0.821428571428571 10.053943452381  0.821428571428571 11.5  C 0.821428571428571 12.946056547619  1.10379464285714 14.3279389880952  1.66852678571429 15.6456473214286  C 2.23325892857143 16.9633556547619  2.9926525297619 18.0992373511905  3.94670758928571 19.0532924107143  C 4.90076264880952 20.0073474702381  6.03664434523809 20.7667410714286  7.35435267857143 21.3314732142857  C 8.67206101190476 21.8962053571429  10.053943452381 22.1785714285714  11.5 22.1785714285714  C 12.946056547619 22.1785714285714  14.3279389880952 21.8962053571429  15.6456473214286 21.3314732142857  C 16.9633556547619 20.7667410714286  18.0992373511905 20.0073474702381  19.0532924107143 19.0532924107143  C 20.0073474702381 18.0992373511905  20.7667410714286 16.9633556547619  21.3314732142857 15.6456473214286  C 21.8962053571429 14.3279389880952  22.1785714285714 12.946056547619  22.1785714285714 11.5  C 22.1785714285714 10.053943452381  21.8962053571429 8.67206101190476  21.3314732142857 7.35435267857143  C 20.7667410714286 6.03664434523809  20.0073474702381 4.90076264880952  19.0532924107143 3.94670758928571  C 18.0992373511905 2.9926525297619  16.9633556547619 2.23325892857143  15.6456473214286 1.66852678571429  Z M 7.03348214285714 0.911272321428571  C 8.45386904761905 0.30375744047619  9.94270833333333 0  11.5 0  C 13.0572916666667 0  14.546130952381 0.30375744047619  15.9665178571429 0.911272321428571  C 17.3869047619048 1.51878720238095  18.6104910714286 2.3359375  19.6372767857143 3.36272321428571  C 20.6640625 4.38950892857143  21.4812127976191 5.61309523809524  22.0887276785714 7.03348214285714  C 22.6962425595238 8.45386904761905  23 9.94270833333333  23 11.5  C 23 13.0572916666667  22.6962425595238 14.546130952381  22.0887276785714 15.9665178571429  C 21.4812127976191 17.3869047619048  20.6640625 18.6104910714286  19.6372767857143 19.6372767857143  C 18.6104910714286 20.6640625  17.3869047619048 21.481212797619  15.9665178571429 22.0887276785714  C 14.546130952381 22.6962425595238  13.0572916666667 23  11.5 23  C 9.94270833333333 23  8.45386904761905 22.6962425595238  7.03348214285714 22.0887276785714  C 5.61309523809524 21.481212797619  4.38950892857143 20.6640625  3.36272321428571 19.6372767857143  C 2.3359375 18.6104910714286  1.51878720238095 17.3869047619048  0.911272321428571 15.9665178571429  C 0.30375744047619 14.546130952381  0 13.0572916666667  0 11.5  C 0 9.94270833333333  0.30375744047619 8.45386904761905  0.911272321428571 7.03348214285714  C 1.51878720238095 5.61309523809524  2.3359375 4.38950892857143  3.36272321428571 3.36272321428571  C 4.38950892857143 2.3359375  5.61309523809524 1.51878720238095  7.03348214285714 0.911272321428571  Z M 5.95535714285714 10.6785714285714  L 6.36607142857143 10.6785714285714  C 6.50297619047619 10.6785714285714  6.57142857142857 10.7470238095238  6.57142857142857 10.8839285714286  L 6.57142857142857 17.0446428571429  C 6.57142857142857 17.1815476190476  6.50297619047619 17.25  6.36607142857143 17.25  L 5.95535714285714 17.25  C 5.81845238095238 17.25  5.75 17.1815476190476  5.75 17.0446428571429  L 5.75 10.8839285714286  C 5.75 10.7470238095238  5.81845238095238 10.6785714285714  5.95535714285714 10.6785714285714  Z M 10.3384486607143 11.9813058035714  C 10.6593191964286 11.6604352678571  11.0465029761905 11.5  11.5 11.5  C 11.9534970238095 11.5  12.3406808035714 11.6604352678571  12.6615513392857 11.9813058035714  C 12.982421875 12.3021763392857  13.1428571428571 12.6893601190476  13.1428571428571 13.1428571428571  C 13.1428571428571 13.4423363095238  13.0679873511905 13.7161458333333  12.9182477678571 13.9642857142857  C 12.7685081845238 14.2124255952381  12.569568452381 14.4092261904762  12.3214285714286 14.5546875  L 12.3214285714286 16.0178571428571  C 12.3214285714286 16.1376488095238  12.2829241071429 16.2360491071429  12.2059151785714 16.3130580357143  C 12.12890625 16.3900669642857  12.030505952381 16.4285714285714  11.9107142857143 16.4285714285714  L 11.0892857142857 16.4285714285714  C 10.969494047619 16.4285714285714  10.87109375 16.3900669642857  10.7940848214286 16.3130580357143  C 10.7170758928571 16.2360491071429  10.6785714285714 16.1376488095238  10.6785714285714 16.0178571428571  L 10.6785714285714 14.5546875  C 10.430431547619 14.4092261904762  10.2314918154762 14.2124255952381  10.0817522321429 13.9642857142857  C 9.93201264880952 13.7161458333333  9.85714285714286 13.4423363095238  9.85714285714286 13.1428571428571  C 9.85714285714286 12.6893601190476  10.017578125 12.3021763392857  10.3384486607143 11.9813058035714  Z M 6.55217633928571 2.96484375  C 8.06240699404762 2.08351934523809  9.71168154761905 1.64285714285714  11.5 1.64285714285714  C 13.288318452381 1.64285714285714  14.9375930059524 2.08351934523809  16.4478236607143 2.96484375  C 17.9580543154762 3.8461681547619  19.1538318452381 5.04194568452381  20.03515625 6.55217633928571  C 20.9164806547619 8.06240699404762  21.3571428571429 9.71168154761905  21.3571428571429 11.5  C 21.3571428571429 13.288318452381  20.9164806547619 14.9375930059524  20.03515625 16.4478236607143  C 19.1538318452381 17.9580543154762  17.9580543154762 19.1538318452381  16.4478236607143 20.03515625  C 14.9375930059524 20.9164806547619  13.288318452381 21.3571428571429  11.5 21.3571428571429  C 9.71168154761905 21.3571428571429  8.06240699404762 20.9164806547619  6.55217633928571 20.03515625  C 5.04194568452381 19.1538318452381  3.8461681547619 17.9580543154762  2.96484375 16.4478236607143  C 2.0835193452381 14.9375930059524  1.64285714285714 13.288318452381  1.64285714285714 11.5  C 1.64285714285714 9.71168154761905  2.0835193452381 8.06240699404762  2.96484375 6.55217633928571  C 3.8461681547619 5.04194568452381  5.04194568452381 3.8461681547619  6.55217633928571 2.96484375  Z M 8.30412946428572 4.60770089285714  C 7.42280505952381 5.48902529761905  6.98214285714286 6.55431547619047  6.98214285714286 7.80357142857143  L 6.98214285714286 9.03571428571429  C 6.98214285714286 9.15550595238095  7.02064732142857 9.25390625  7.09765625 9.33091517857143  C 7.17466517857143 9.40792410714286  7.27306547619048 9.44642857142857  7.39285714285714 9.44642857142857  L 8.21428571428572 9.44642857142857  C 8.33407738095238 9.44642857142857  8.43247767857143 9.40792410714286  8.50948660714286 9.33091517857143  C 8.58649553571428 9.25390625  8.625 9.15550595238095  8.625 9.03571428571429  L 8.625 7.80357142857143  C 8.625 7.0078125  8.90522693452381 6.32970610119047  9.46568080357143 5.76925223214286  C 10.026134672619 5.20879836309524  10.7042410714286 4.92857142857143  11.5 4.92857142857143  C 12.2957589285714 4.92857142857143  12.973865327381 5.20879836309524  13.5343191964286 5.76925223214286  C 14.0947730654762 6.32970610119047  14.375 7.0078125  14.375 7.80357142857143  L 14.375 9.03571428571429  C 14.375 9.15550595238095  14.4135044642857 9.25390625  14.4905133928571 9.33091517857143  C 14.5675223214286 9.40792410714286  14.6659226190476 9.44642857142857  14.7857142857143 9.44642857142857  L 15.6071428571429 9.44642857142857  C 15.7269345238095 9.44642857142857  15.8253348214286 9.40792410714286  15.90234375 9.33091517857143  C 15.9793526785714 9.25390625  16.0178571428571 9.15550595238095  16.0178571428571 9.03571428571429  L 16.0178571428571 7.80357142857143  C 16.0178571428571 6.55431547619047  15.5771949404762 5.48902529761905  14.6958705357143 4.60770089285714  C 13.8145461309524 3.72637648809524  12.749255952381 3.28571428571429  11.5 3.28571428571429  C 10.250744047619 3.28571428571429  9.18545386904762 3.72637648809524  8.30412946428572 4.60770089285714  Z M 17.8275669642857 17.8275669642857  C 17.9901413690476 17.6649925595238  18.0714285714286 17.4724702380952  18.0714285714286 17.25  L 18.0714285714286 10.6785714285714  C 18.0714285714286 10.4561011904762  17.9901413690476 10.2635788690476  17.8275669642857 10.1010044642857  C 17.6649925595238 9.93843005952381  17.4724702380952 9.85714285714286  17.25 10  L 5.75 10  C 5.52752976190476 9.85714285714286  5.33500744047619 9.93843005952381  5.17243303571429 10.1010044642857  C 5.00985863095238 10.2635788690476  4.92857142857143 10.4561011904762  4.92857142857143 10.6785714285714  L 4.92857142857143 17.25  C 4.92857142857143 17.4724702380952  5.00985863095238 17.6649925595238  5.17243303571429 17.8275669642857  C 5.33500744047619 17.9901413690476  5.52752976190476 18.0714285714286  5.75 18  L 17.25 18  C 17.4724702380952 18.0714285714286  17.6649925595238 17.9901413690476  17.8275669642857 17.8275669642857  Z " fill-rule="nonzero" fill="#cacaca" stroke="none" transform="matrix(1 0 0 1 1029 373 )" />
  </g>
</svg>